<mxfile host="65bd71144e">
    <diagram id="VDbZ0644L7TI2zJoR-yV" name="Page-1">
        <mxGraphModel dx="1467" dy="910" grid="0" gridSize="10" guides="1" tooltips="1" connect="1" arrows="1" fold="1" page="0" pageScale="1" pageWidth="827" pageHeight="1169" math="0" shadow="0">
            <root>
                <mxCell id="0"/>
                <mxCell id="1" parent="0"/>
                <mxCell id="10" style="edgeStyle=orthogonalEdgeStyle;rounded=0;orthogonalLoop=1;jettySize=auto;html=1;" parent="1" source="6" target="7" edge="1">
                    <mxGeometry relative="1" as="geometry"/>
                </mxCell>
                <mxCell id="6" value="" style="ellipse;fillColor=#ffffff;strokeColor=#000000;" parent="1" vertex="1">
                    <mxGeometry x="-358" y="310" width="30" height="30" as="geometry"/>
                </mxCell>
                <mxCell id="9" value="Shutter open / led on" style="edgeStyle=orthogonalEdgeStyle;rounded=0;orthogonalLoop=1;jettySize=auto;html=1;jumpStyle=none;" parent="1" source="7" target="8" edge="1">
                    <mxGeometry relative="1" as="geometry"/>
                </mxCell>
                <mxCell id="7" value="Wait for shutter&amp;nbsp;" style="html=1;align=center;verticalAlign=top;rounded=1;absoluteArcSize=1;arcSize=10;dashed=0;" parent="1" vertex="1">
                    <mxGeometry x="-215" y="305" width="140" height="40" as="geometry"/>
                </mxCell>
                <mxCell id="12" value="Shutter closed" style="edgeStyle=orthogonalEdgeStyle;rounded=0;orthogonalLoop=1;jettySize=auto;html=1;" parent="1" source="8" target="11" edge="1">
                    <mxGeometry relative="1" as="geometry"/>
                </mxCell>
                <mxCell id="13" value="Reset button / led off&amp;nbsp;" style="edgeStyle=orthogonalEdgeStyle;rounded=0;orthogonalLoop=1;jettySize=auto;html=1;entryX=0.5;entryY=1;entryDx=0;entryDy=0;" parent="1" source="8" target="7" edge="1">
                    <mxGeometry relative="1" as="geometry">
                        <Array as="points">
                            <mxPoint x="153" y="365"/>
                            <mxPoint x="-145" y="365"/>
                        </Array>
                    </mxGeometry>
                </mxCell>
                <mxCell id="8" value="Shutter open" style="html=1;align=center;verticalAlign=top;rounded=1;absoluteArcSize=1;arcSize=10;dashed=0;" parent="1" vertex="1">
                    <mxGeometry x="83" y="305" width="140" height="40" as="geometry"/>
                </mxCell>
                <mxCell id="14" value="Reset" style="edgeStyle=orthogonalEdgeStyle;rounded=0;orthogonalLoop=1;jettySize=auto;html=1;entryX=0.5;entryY=1;entryDx=0;entryDy=0;" parent="1" source="11" target="7" edge="1">
                    <mxGeometry relative="1" as="geometry">
                        <Array as="points">
                            <mxPoint x="390" y="413"/>
                            <mxPoint x="-145" y="413"/>
                        </Array>
                    </mxGeometry>
                </mxCell>
                <mxCell id="11" value="Result display" style="html=1;align=center;verticalAlign=top;rounded=1;absoluteArcSize=1;arcSize=10;dashed=0;" parent="1" vertex="1">
                    <mxGeometry x="345" y="305" width="140" height="40" as="geometry"/>
                </mxCell>
                <mxCell id="16" style="rounded=0;jumpStyle=none;orthogonalLoop=1;jettySize=auto;html=1;dashed=1;endArrow=none;endFill=0;" parent="1" source="15" target="7" edge="1">
                    <mxGeometry relative="1" as="geometry"/>
                </mxCell>
                <mxCell id="17" style="edgeStyle=none;rounded=0;jumpStyle=none;orthogonalLoop=1;jettySize=auto;html=1;entryX=0.25;entryY=0;entryDx=0;entryDy=0;dashed=1;endArrow=none;endFill=0;" parent="1" source="15" target="8" edge="1">
                    <mxGeometry relative="1" as="geometry"/>
                </mxCell>
                <mxCell id="15" value="Light On" style="shape=note2;boundedLbl=1;whiteSpace=wrap;html=1;size=9;verticalAlign=top;align=center;spacing=0;" parent="1" vertex="1">
                    <mxGeometry x="-83" y="217" width="102" height="44" as="geometry"/>
                </mxCell>
                <mxCell id="19" style="edgeStyle=none;rounded=0;jumpStyle=none;orthogonalLoop=1;jettySize=auto;html=1;entryX=0.75;entryY=0;entryDx=0;entryDy=0;dashed=1;endArrow=none;endFill=0;" parent="1" source="18" target="8" edge="1">
                    <mxGeometry relative="1" as="geometry"/>
                </mxCell>
                <mxCell id="18" value="Led On" style="shape=note2;boundedLbl=1;whiteSpace=wrap;html=1;size=9;verticalAlign=top;align=center;spacing=0;" parent="1" vertex="1">
                    <mxGeometry x="147" y="201" width="102" height="44" as="geometry"/>
                </mxCell>
            </root>
        </mxGraphModel>
    </diagram>
</mxfile>